# xmcd
#
# Track frame offsets: 
#        150
#        15426
#        28794
#        38280
#        52091
#        64961
#        78120
#        90705
#        100864
#        112007
#        122234
#        135226
#        147711
#        159484
#        174158
#        187613
#        197934
#        210628
#
# Disc length: 2971 seconds
#
# Revision: 2
# Processed by: cddbd v1.5.2PL0 Copyright (c) Steve Scherf et al.
# Submitted via: ExactAudioCopy v0.99pb5
#
DISCID=ec0b9912
DTITLE=Various Artist - The Lighter Side Of Country
DYEAR=2003
DGENRE=Country
TTITLE0=Billie Joe Spears - Blanket On The Ground
TTITLE1=Lynn Anderson - Rose Garden
TTITLE2=Bobby Lewis - Hello Mary Lou
TTITLE3=Johnny Carver - Tie A Yellow Ribbon
TTITLE4=Tammy Wynette - Stand By Your Man (live)
TTITLE5=Kenny Rogers - Ruby, Don't Take Your Love To Town
TTITLE6=Stonewall Jackson - Me and You and A Dog Named Boo
TTITLE7=Jack Reno - Hitchin' A Ride
TTITLE8=Roger Miller - King Of The Road
TTITLE9=Porter Wagoner - Green Green Grass of Home
TTITLE10=Faron Young - It's Four In The Morning
TTITLE11=Charlie Rich - Behind Closed Doors
TTITLE12=Don Gibson - I Can't Stop Loving You
TTITLE13=Johnny Paycheck - A Good Year For The Roses
TTITLE14=Ray Price - Heartaches By The Number
TTITLE15=Dolly Parton - Release Me
TTITLE16=Charley Pride - Crystal Chandeliers (live)
TTITLE17=Stonewall Jackson - I Love You Because
EXTD=
EXTT0=
EXTT1=
EXTT2=
EXTT3=
EXTT4=
EXTT5=
EXTT6=
EXTT7=
EXTT8=
EXTT9=
EXTT10=
EXTT11=
EXTT12=
EXTT13=
EXTT14=
EXTT15=
EXTT16=
EXTT17=
PLAYORDER=
